<svg width="240" height="25" viewBox="0 0 240 25" fill="none" xmlns="http://www.w3.org/2000/svg">
<g clip-path="url(#clip0_35_48)">
<g clip-path="url(#clip1_35_48)">
<path d="M51.34 2.82819C51.34 1.26791 50.9159 0.00305176 50.3927 0.00305176C49.8695 0.00305176 49.4453 1.26791 49.4453 2.82819V22.1718C49.4453 23.732 49.8695 24.9969 50.3927 24.9969C50.9159 24.9969 51.34 23.732 51.34 22.1718V2.82819Z" fill="#41B64D"/>
<g clip-path="url(#clip2_35_48)">
<g clip-path="url(#clip3_35_48)">
<g clip-path="url(#clip4_35_48)">
<g clip-path="url(#clip5_35_48)">
<path d="M74.0244 23.4391H80.5771V24.9347H56.3057V23.4391H62.8584C61.252 22.3492 59.9826 20.8536 59.0502 18.9521C58.1216 17.0507 57.6573 14.9405 57.6573 12.6217C57.6573 9.0507 58.6956 6.06404 60.7721 3.66173C62.8486 1.26405 65.405 0.0652161 68.4414 0.0652161C71.4777 0.0652161 74.0342 1.26405 76.1107 3.66173C78.1871 6.06404 79.2254 9.0507 79.2254 12.6217C79.2254 14.9405 78.7552 17.0507 77.8149 18.9521C76.8747 20.8536 75.6111 22.3492 74.0244 23.4391ZM74.5533 12.6356C74.5533 10.4698 73.9656 8.62171 72.7902 7.09128C71.6149 5.56085 70.1711 4.79564 68.459 4.79564C66.743 4.79564 65.2972 5.56085 64.1219 7.09128C62.9465 8.62171 62.3588 10.4698 62.3588 12.6356C62.3588 14.806 62.9465 16.6495 64.1219 18.166C65.2972 19.6872 66.743 20.4478 68.459 20.4478C70.1711 20.4478 71.6149 19.6872 72.7902 18.166C73.9656 16.6495 74.5533 14.806 74.5533 12.6356ZM103.556 23.4391H110.196V24.9347H99.7062L95.2104 8.03041L90.744 24.9347H80.2538V23.4391H86.8947L80.1657 0.621736H85.1316L89.1867 14.6043L92.8303 0.621736H97.6199L101.234 14.6043L105.319 0.621736H110.285L103.556 23.4391ZM130.589 23.4391H133.998V24.9347H126.27L124.36 19.6826H115.75L113.84 24.9347H106.112V23.4391H109.491L117.836 0.621736H122.273L130.589 23.4391ZM122.626 14.9173L120.07 7.8565L117.484 14.9173H122.626ZM147.626 23.4391H151.74V24.9347H130.671V23.4391H133.522V0.621736H141.514C142.905 0.621736 144.106 0.818838 145.117 1.21304C146.124 1.60724 146.882 2.14057 147.391 2.81304C148.312 4.06521 148.772 5.47969 148.772 7.0565C148.772 8.95794 148.253 10.3724 147.215 11.3C146.862 11.6246 146.617 11.8263 146.48 11.9052C146.343 11.9887 146.098 12.1232 145.745 12.3087C147.019 12.6333 148.034 13.3104 148.79 14.34C149.542 15.3742 149.918 16.6565 149.918 18.1869C149.918 20.4826 149.154 22.2333 147.626 23.4391ZM138.106 14.7434V20.3434H141.25C142.562 20.3434 143.548 20.151 144.206 19.766C144.86 19.3857 145.187 18.6321 145.187 17.5052C145.187 16.3829 144.84 15.6408 144.147 15.2791C143.45 14.922 142.337 14.7434 140.809 14.7434H138.106ZM138.106 5.21303V10.4652H140.28C141.553 10.4652 142.5 10.3029 143.119 9.97823C143.734 9.6536 144.041 8.95099 144.041 7.87041C144.041 6.79447 143.757 6.08259 143.189 5.73477C142.621 5.38694 141.661 5.21303 140.309 5.21303H138.106ZM169.459 23.4391H176.011V24.9347H151.74V23.4391H158.293C156.686 22.3492 155.419 20.8536 154.49 18.9521C153.558 17.0507 153.092 14.9405 153.092 12.6217C153.092 9.0507 154.13 6.06404 156.206 3.66173C158.283 1.26405 160.839 0.0652161 163.876 0.0652161C166.912 0.0652161 169.468 1.26405 171.545 3.66173C173.621 6.06404 174.66 9.0507 174.66 12.6217C174.66 14.9405 174.189 17.0507 173.249 18.9521C172.309 20.8536 171.045 22.3492 169.459 23.4391ZM169.988 12.6356C169.988 10.4698 169.4 8.62171 168.224 7.09128C167.049 5.56085 165.605 4.79564 163.893 4.79564C162.177 4.79564 160.731 5.56085 159.556 7.09128C158.381 8.62171 157.793 10.4698 157.793 12.6356C157.793 14.806 158.381 16.6495 159.556 18.166C160.731 19.6872 162.177 20.4478 163.893 20.4478C165.605 20.4478 167.049 19.6872 168.224 18.166C169.4 16.6495 169.988 14.806 169.988 12.6356ZM193.73 23.4391H200.283V24.9347H176.011V23.4391H182.564C180.958 22.3492 179.688 20.8536 178.756 18.9521C177.827 17.0507 177.363 14.9405 177.363 12.6217C177.363 9.0507 178.401 6.06404 180.478 3.66173C182.554 1.26405 185.111 0.0652161 188.147 0.0652161C191.183 0.0652161 193.74 1.26405 195.816 3.66173C197.893 6.06404 198.931 9.0507 198.931 12.6217C198.931 14.9405 198.461 17.0507 197.521 18.9521C196.58 20.8536 195.317 22.3492 193.73 23.4391ZM194.259 12.6356C194.259 10.4698 193.671 8.62171 192.496 7.09128C191.32 5.56085 189.875 4.79564 188.159 4.79564C186.447 4.79564 185.003 5.56085 183.828 7.09128C182.652 8.62171 182.064 10.4698 182.064 12.6356C182.064 14.806 182.652 16.6495 183.828 18.166C185.003 19.6872 186.447 20.4478 188.159 20.4478C189.875 20.4478 191.32 19.6872 192.496 18.166C193.671 16.6495 194.259 14.806 194.259 12.6356ZM220.822 0.621736L212.653 11.3695L219.911 23.4391H222.35V24.9347H215.474L209.451 15.3347L207.394 18.0478V24.9347H200.283V23.4391H202.81V0.621736H207.394V10.6043L215.151 0.621736H220.822ZM235.567 23.4391H239.329V24.9347H220.581V23.4391H224.578C223.5 22.7898 222.521 21.955 221.639 20.9347L224.372 16.9695C226.586 19.2652 228.633 20.413 230.513 20.413C231.356 20.413 232.018 20.1973 232.5 19.766C232.978 19.3394 233.217 18.7597 233.217 18.0269C233.217 17.2988 232.962 16.7191 232.453 16.2878C231.943 15.8611 230.934 15.4275 229.426 14.9869C227.036 14.3145 225.289 13.4403 224.184 12.3643C223.075 11.2837 222.521 9.58867 222.521 7.27911C222.521 4.97419 223.222 3.19564 224.625 1.94347C226.023 0.691302 227.771 0.0652161 229.867 0.0652161C231.238 0.0652161 232.609 0.343477 233.981 0.899997C235.352 1.45652 236.547 2.24492 237.565 3.26521L235.244 7.23041C233.461 5.63042 231.62 4.83042 229.72 4.83042C228.956 4.83042 228.354 5.04375 227.916 5.47042C227.473 5.90172 227.252 6.46984 227.252 7.17476C227.252 7.88432 227.522 8.4478 228.063 8.86519C228.599 9.28258 229.843 9.77418 231.794 10.34C233.742 10.9104 235.254 11.7637 236.331 12.9C237.409 14.0362 237.947 15.613 237.947 17.6304C237.947 20.1347 237.154 22.071 235.567 23.4391Z" fill="#41B64D"/>
</g>
</g>
</g>
</g>
<g clip-path="url(#clip6_35_48)">
<g clip-path="url(#clip7_35_48)">
<path d="M16.421 18.7779C12.9435 17.103 11.1764 16.9214 9.30536 16.7292C7.46088 16.5408 5.55119 16.3411 1.93735 14.6263C1.66884 15.106 1.44711 16.0376 1.26855 17.1668C4.98404 18.3131 6.86495 18.2252 8.67929 18.1363C10.5148 18.0469 12.4114 17.9548 16.122 19.1196C17.3777 19.5141 18.3555 19.9023 19.1331 20.2781C18.4423 19.8261 17.563 19.3278 16.421 18.7779Z" fill="#41B64D"/>
<path d="M15.9799 20.2866C12.3512 19.1468 10.5792 19.2325 8.70184 19.3241C6.85332 19.4146 4.93868 19.504 1.17327 18.3471C1.05183 19.2277 0.953785 20.1812 0.875977 21.1017C4.54919 21.6176 6.37027 21.2444 8.12705 20.8802C9.93554 20.506 11.8057 20.1189 15.6142 20.695C17.1039 20.9207 18.226 21.1954 19.0918 21.4936C18.3232 21.1108 17.3179 20.7067 15.9799 20.2866Z" fill="#41B64D"/>
<path d="M8.22247 22.0584C6.42747 22.4295 4.56815 22.8102 0.823432 22.2874C0.746973 23.2962 0.694351 24.2285 0.666016 24.92C4.42828 24.8886 6.20349 24.238 7.92203 23.6077C9.67656 22.9646 11.4904 22.2996 15.3292 22.2996C16.6272 22.2996 17.6562 22.3773 18.4888 22.5056C17.7233 22.2767 16.7662 22.0632 15.5442 21.8785C11.8201 21.3142 10.0723 21.6756 8.22247 22.0584Z" fill="#41B64D"/>
<path d="M36.4718 18.1502C38.2902 18.238 40.1742 18.3274 43.9077 17.1732C43.7233 15.945 43.5011 14.9926 43.2425 14.6268C39.6093 16.3549 37.6951 16.5535 35.8453 16.743C33.9742 16.9352 32.2067 17.1157 28.7291 18.7922C27.5872 19.3427 26.707 19.841 26.0166 20.2941C26.7942 19.9177 27.7725 19.5285 29.0296 19.1345C32.7392 17.9686 34.6367 18.0612 36.4718 18.1502Z" fill="#41B64D"/>
<path d="M42.9619 13.5232L39.0247 0.0654297C36.175 1.40439 34.6553 1.55985 33.185 1.71051C31.6819 1.86437 30.2624 2.00972 27.4699 3.35506C23.597 5.22162 23.3869 6.38755 23.2745 7.01417C23.2201 7.31497 23.1557 7.65144 22.8076 7.87079V23.1637C22.8094 23.1605 22.813 23.1573 22.8153 23.153C22.8315 23.1253 22.8458 23.0918 22.8602 23.0551C22.8895 22.9709 22.9115 22.8698 22.9385 22.7223C23.1139 21.7475 23.4072 20.1157 28.5218 17.6524C32.0768 15.9381 33.9689 15.7448 35.799 15.5569C37.5945 15.3732 39.4506 15.1837 42.9619 13.5232Z" fill="#41B64D"/>
<path d="M37.0233 20.8941C38.7818 21.2583 40.6038 21.6304 44.2829 21.1145C44.2055 20.1615 44.1106 19.2144 43.9982 18.3546C40.2211 19.5174 38.3024 19.4284 36.4489 19.3374C34.5716 19.2464 32.8 19.1607 29.1709 20.3005C27.8328 20.7211 26.8281 21.1252 26.0576 21.509C26.9239 21.2109 28.0465 20.9362 29.5361 20.7104C33.3438 20.1328 35.2157 20.5198 37.0233 20.8941Z" fill="#41B64D"/>
<path d="M37.2289 23.6221C38.947 24.2519 40.7227 24.903 44.4849 24.9349C44.4525 24.131 44.4004 23.2244 44.3338 22.3007C40.5855 22.8251 38.7239 22.4439 36.9285 22.0723C35.0786 21.6895 33.3313 21.3285 29.6068 21.8923C28.3857 22.0776 27.4281 22.2916 26.6631 22.5195C27.4951 22.3928 28.5238 22.3134 29.8218 22.3134C33.6609 22.3134 35.4748 22.9789 37.2289 23.6221Z" fill="#41B64D"/>
<path d="M22.2132 22.7094C22.228 22.7914 22.2406 22.8579 22.2541 22.9191V7.87117C21.906 7.65183 21.8417 7.31536 21.7877 7.01456C21.6748 6.38793 21.4652 5.222 17.5919 3.35545C14.7993 2.0101 13.3798 1.86476 11.8772 1.7109C10.4065 1.56023 8.88761 1.40424 6.03882 0.0663452L2.1875 13.5081C5.70014 15.1697 7.55676 15.3603 9.35356 15.544C11.1832 15.7319 13.0749 15.9257 16.6303 17.6384C21.745 20.1023 22.0382 21.7346 22.2132 22.7094Z" fill="#41B64D"/>
</g>
</g>
</g>
</g>
<defs>
<clipPath id="clip0_35_48">
<rect width="238.668" height="24.9938" fill="white" transform="translate(0.666016 0.00305176)"/>
</clipPath>
<clipPath id="clip1_35_48">
<rect width="238.668" height="24.9938" fill="white" transform="translate(0.666016 0.00305176)"/>
</clipPath>
<clipPath id="clip2_35_48">
<rect width="183.035" height="24.8695" fill="white" transform="translate(56.2998 0.0652161)"/>
</clipPath>
<clipPath id="clip3_35_48">
<rect width="183.035" height="24.8695" fill="white" transform="translate(56.2998 0.0652161)"/>
</clipPath>
<clipPath id="clip4_35_48">
<rect width="183.035" height="24.8695" fill="white" transform="translate(56.2998 0.0652161)"/>
</clipPath>
<clipPath id="clip5_35_48">
<rect width="183.035" height="24.8695" fill="white" transform="translate(56.2998 0.0652161)"/>
</clipPath>
<clipPath id="clip6_35_48">
<rect width="43.819" height="24.8695" fill="white" transform="translate(0.666016 0.0654297)"/>
</clipPath>
<clipPath id="clip7_35_48">
<rect width="43.819" height="24.8695" fill="white" transform="translate(0.666016 0.0654297)"/>
</clipPath>
</defs>
</svg>
