<svg width="16" height="14" viewBox="0 0 16 14" fill="none" xmlns="http://www.w3.org/2000/svg">
<path d="M7.80731 13.9307L7.80223 13.928L7.78461 13.9185C7.76961 13.9103 7.74815 13.8985 7.72067 13.8832C7.66571 13.8525 7.58662 13.8076 7.48685 13.7489C7.28738 13.6316 7.00479 13.4588 6.66674 13.2341C5.99177 12.7854 5.0899 12.1258 4.18563 11.2829C2.3961 9.61468 0.5 7.1363 0.5 4.08339C0.5 1.80598 2.41616 0 4.72923 0C6.08949 0 7.30746 0.621522 8.08345 1.59571C8.85943 0.621522 10.0774 0 11.4377 0C13.7507 0 15.6669 1.80598 15.6669 4.08339C15.6669 7.1363 13.7708 9.61468 11.9813 11.2829C11.077 12.1258 10.1751 12.7854 9.50015 13.2341C9.16211 13.4588 8.87952 13.6316 8.68004 13.7489C8.58027 13.8076 8.50118 13.8525 8.44623 13.8832C8.41875 13.8985 8.39729 13.9103 8.38228 13.9185L8.36467 13.928L8.35959 13.9307L8.35744 13.9319C8.18636 14.0227 7.98054 14.0227 7.80946 13.9319L7.80731 13.9307Z" fill="#F34040"/>
</svg>
