<svg width="16" height="16" viewBox="0 0 16 16" fill="none" xmlns="http://www.w3.org/2000/svg">
<path d="M7.73373 14.683L7.72883 14.6804L7.71184 14.6712C7.69737 14.6633 7.67668 14.6519 7.65018 14.6372C7.59719 14.6076 7.52093 14.5643 7.42472 14.5077C7.23237 14.3945 6.95988 14.2279 6.63391 14.0112C5.98306 13.5786 5.11341 12.9426 4.24145 12.1297C2.51586 10.5212 0.6875 8.13133 0.6875 5.1875C0.6875 2.99146 2.5352 1.25 4.76562 1.25C6.07729 1.25 7.25174 1.84932 8 2.7887C8.74826 1.84932 9.92271 1.25 11.2344 1.25C13.4648 1.25 15.3125 2.99146 15.3125 5.1875C15.3125 8.13133 13.4841 10.5212 11.7586 12.1297C10.8866 12.9426 10.0169 13.5786 9.36609 14.0112C9.04012 14.2279 8.76763 14.3945 8.57528 14.5077C8.47907 14.5643 8.40281 14.6076 8.34982 14.6372C8.32332 14.6519 8.30263 14.6633 8.28816 14.6712L8.27117 14.6804L8.26627 14.683L8.2642 14.6841C8.09923 14.7717 7.90077 14.7717 7.7358 14.6841L7.73373 14.683Z" stroke="#2B3844" stroke-linejoin="round"/>
</svg>
