<svg width="585" height="550" viewBox="0 0 585 550" fill="none" xmlns="http://www.w3.org/2000/svg">
<mask id="mask0_1_21" style="mask-type:alpha" maskUnits="userSpaceOnUse" x="0" y="0" width="585" height="550">
<rect width="585" height="550" fill="#3056D3"/>
</mask>
<g mask="url(#mask0_1_21)">
<rect width="585" height="550" fill="#41B64D"/>
<circle cx="167.5" cy="107.5" r="247.5" fill="url(#paint0_linear_1_21)"/>
<circle cx="457.5" cy="447.5" r="42.5" transform="rotate(-90 457.5 447.5)" fill="url(#paint1_linear_1_21)"/>
<circle cy="177" r="177" fill="url(#paint2_linear_1_21)"/>
<path d="M56.7699 420H61.0753V411.588H69.8153V420H74.1108V399.636H69.8153V408.038H61.0753V399.636H56.7699V420ZM84.5412 420.298C88.3196 420.298 90.8651 418.459 91.4616 415.625L87.544 415.366C87.1165 416.53 86.0227 417.136 84.6108 417.136C82.4929 417.136 81.1506 415.734 81.1506 413.457V413.447H91.5511V412.284C91.5511 407.094 88.4091 404.528 84.3722 404.528C79.8778 404.528 76.9645 407.72 76.9645 412.433C76.9645 417.276 79.8381 420.298 84.5412 420.298ZM81.1506 410.822C81.2401 409.082 82.5625 407.69 84.4418 407.69C86.2812 407.69 87.554 409.003 87.5639 410.822H81.1506ZM96.4929 425.727C99.6449 425.727 101.315 424.116 102.18 421.651L108.116 404.747L103.632 404.727L100.44 415.943H100.281L97.1193 404.727H92.6648L98.1435 420.438L97.8949 421.084C97.3381 422.516 96.2741 422.585 94.7827 422.128L93.8281 425.29C94.4347 425.548 95.419 425.727 96.4929 425.727ZM61.3537 454H65.5497L69.4176 440.686H69.5767L73.4545 454H77.6506L83.4773 433.636H78.7741L75.4034 447.815H75.2244L71.5156 433.636H67.4886L63.7699 447.786H63.6009L60.2301 433.636H55.527L61.3537 454ZM91.0217 454.298C94.8001 454.298 97.3455 452.459 97.9421 449.625L94.0245 449.366C93.5969 450.53 92.5032 451.136 91.0913 451.136C88.9734 451.136 87.631 449.734 87.631 447.457V447.447H98.0316V446.284C98.0316 441.094 94.8896 438.528 90.8526 438.528C86.3583 438.528 83.445 441.72 83.445 446.433C83.445 451.276 86.3185 454.298 91.0217 454.298ZM87.631 444.822C87.7205 443.082 89.043 441.69 90.9222 441.69C92.7617 441.69 94.0344 443.003 94.0444 444.822H87.631ZM105.032 433.636H100.796V454H105.032V433.636ZM115.325 454.298C119.392 454.298 121.947 451.912 122.146 448.402H118.149C117.901 450.033 116.827 450.947 115.375 450.947C113.396 450.947 112.114 449.287 112.114 446.364C112.114 443.48 113.406 441.83 115.375 441.83C116.926 441.83 117.92 442.854 118.149 444.375H122.146C121.967 440.845 119.293 438.528 115.305 438.528C110.672 438.528 107.808 441.74 107.808 446.423C107.808 451.067 110.622 454.298 115.325 454.298ZM131.759 454.298C136.392 454.298 139.276 451.126 139.276 446.423C139.276 441.69 136.392 438.528 131.759 438.528C127.125 438.528 124.242 441.69 124.242 446.423C124.242 451.126 127.125 454.298 131.759 454.298ZM131.779 451.017C129.641 451.017 128.547 449.058 128.547 446.393C128.547 443.729 129.641 441.76 131.779 441.76C133.877 441.76 134.971 443.729 134.971 446.393C134.971 449.058 133.877 451.017 131.779 451.017ZM142.03 454H146.266V444.832C146.266 443.142 147.34 442.018 148.752 442.018C150.144 442.018 151.078 442.973 151.078 444.474V454H155.185V444.673C155.185 443.092 156.09 442.018 157.631 442.018C158.983 442.018 159.998 442.864 159.998 444.564V454H164.223V443.729C164.223 440.418 162.255 438.528 159.411 438.528C157.174 438.528 155.434 439.672 154.807 441.422H154.648C154.161 439.652 152.6 438.528 150.502 438.528C148.444 438.528 146.882 439.622 146.246 441.422H146.067V438.727H142.03V454ZM174.529 454.298C178.308 454.298 180.853 452.459 181.45 449.625L177.532 449.366C177.105 450.53 176.011 451.136 174.599 451.136C172.481 451.136 171.139 449.734 171.139 447.457V447.447H181.539V446.284C181.539 441.094 178.397 438.528 174.36 438.528C169.866 438.528 166.953 441.72 166.953 446.433C166.953 451.276 169.826 454.298 174.529 454.298ZM171.139 444.822C171.228 443.082 172.551 441.69 174.43 441.69C176.27 441.69 177.542 443.003 177.552 444.822H171.139ZM56.7699 488H65.4702C70.044 488 72.4801 485.614 72.4801 482.372C72.4801 479.359 70.3224 477.54 68.0057 477.43V477.232C70.1236 476.754 71.6847 475.253 71.6847 472.857C71.6847 469.804 69.4176 467.636 64.9233 467.636H56.7699V488ZM61.0753 484.48V479.071H64.6847C66.7528 479.071 68.0355 480.264 68.0355 481.945C68.0355 483.476 66.9915 484.48 64.5852 484.48H61.0753ZM61.0753 476.158V471.116H64.3466C66.2557 471.116 67.3395 472.101 67.3395 473.572C67.3395 475.183 66.027 476.158 64.267 476.158H61.0753ZM79.5572 488.288C81.8143 488.288 83.2759 487.304 84.0217 485.882H84.141V488H88.158V477.699C88.158 474.06 85.0756 472.528 81.6751 472.528C78.016 472.528 75.6097 474.278 75.0231 477.062L78.9407 477.381C79.229 476.366 80.1339 475.621 81.6552 475.621C83.0969 475.621 83.9222 476.347 83.9222 477.599V477.659C83.9222 478.643 82.8782 478.773 80.2234 479.031C77.2006 479.31 74.4862 480.324 74.4862 483.734C74.4862 486.757 76.6438 488.288 79.5572 488.288ZM80.7702 485.365C79.4677 485.365 78.533 484.759 78.533 483.595C78.533 482.402 79.5174 481.815 81.0089 481.607C81.9336 481.477 83.445 481.259 83.9521 480.92V482.541C83.9521 484.142 82.6296 485.365 80.7702 485.365ZM98.3448 488.298C102.412 488.298 104.967 485.912 105.166 482.402H101.169C100.92 484.033 99.8462 484.947 98.3945 484.947C96.4158 484.947 95.1332 483.287 95.1332 480.364C95.1332 477.48 96.4258 475.83 98.3945 475.83C99.9457 475.83 100.94 476.854 101.169 478.375H105.166C104.987 474.845 102.312 472.528 98.3249 472.528C93.6914 472.528 90.8278 475.74 90.8278 480.423C90.8278 485.067 93.6417 488.298 98.3448 488.298ZM107.878 488H112.114V483.148L113.257 481.845L117.423 488H122.385L116.429 479.339L122.097 472.727H117.234L112.342 478.524H112.114V467.636H107.878V488Z" fill="white"/>
</g>
<defs>
<linearGradient id="paint0_linear_1_21" x1="167.5" y1="-140" x2="167.5" y2="355" gradientUnits="userSpaceOnUse">
<stop offset="0.177083" stop-color="white" stop-opacity="0.16"/>
<stop offset="1" stop-color="white" stop-opacity="0"/>
</linearGradient>
<linearGradient id="paint1_linear_1_21" x1="457.5" y1="405" x2="457.5" y2="490" gradientUnits="userSpaceOnUse">
<stop offset="0.177083" stop-color="white" stop-opacity="0.16"/>
<stop offset="1" stop-color="white" stop-opacity="0"/>
</linearGradient>
<linearGradient id="paint2_linear_1_21" x1="0" y1="0" x2="0" y2="354" gradientUnits="userSpaceOnUse">
<stop offset="0.177083" stop-color="white" stop-opacity="0.2"/>
<stop offset="1" stop-color="white" stop-opacity="0"/>
</linearGradient>
</defs>
</svg>
