<svg width="240" height="25" viewBox="0 0 240 25" fill="none" xmlns="http://www.w3.org/2000/svg">
<g clip-path="url(#clip0_30_758)">
<g clip-path="url(#clip1_30_758)">
<path d="M51.3395 2.82819C51.3395 1.26791 50.9154 0.00305176 50.3922 0.00305176C49.869 0.00305176 49.4448 1.26791 49.4448 2.82819V22.1718C49.4448 23.732 49.869 24.9969 50.3922 24.9969C50.9154 24.9969 51.3395 23.732 51.3395 22.1718V2.82819Z" fill="#F27851"/>
<g clip-path="url(#clip2_30_758)">
<g clip-path="url(#clip3_30_758)">
<g clip-path="url(#clip4_30_758)">
<g clip-path="url(#clip5_30_758)">
<path d="M74.0246 23.439H80.5773V24.9347H56.3059V23.439H62.8586C61.2523 22.3492 59.9829 20.8535 59.0504 18.9521C58.1219 17.0506 57.6576 14.9405 57.6576 12.6217C57.6576 9.05067 58.6958 6.06401 60.7723 3.6617C62.8488 1.26402 65.4052 0.0651855 68.4416 0.0651855C71.478 0.0651855 74.0344 1.26402 76.1109 3.6617C78.1874 6.06401 79.2256 9.05067 79.2256 12.6217C79.2256 14.9405 78.7555 17.0506 77.8152 18.9521C76.8749 20.8535 75.6114 22.3492 74.0246 23.439ZM74.5535 12.6356C74.5535 10.4698 73.9659 8.62168 72.7905 7.09125C71.6151 5.56082 70.1714 4.79561 68.4592 4.79561C66.7432 4.79561 65.2975 5.56082 64.1221 7.09125C62.9468 8.62168 62.3591 10.4698 62.3591 12.6356C62.3591 14.806 62.9468 16.6495 64.1221 18.166C65.2975 19.6872 66.7432 20.4477 68.4592 20.4477C70.1714 20.4477 71.6151 19.6872 72.7905 18.166C73.9659 16.6495 74.5535 14.806 74.5535 12.6356ZM103.556 23.439H110.197V24.9347H99.7065L95.2107 8.03038L90.7443 24.9347H80.2541V23.439H86.8949L80.1659 0.621705H85.1319L89.1869 14.6043L92.8306 0.621705H97.6202L101.234 14.6043L105.319 0.621705H110.285L103.556 23.439ZM130.589 23.439H133.998V24.9347H126.27L124.36 19.6825H115.75L113.84 24.9347H106.112V23.439H109.491L117.837 0.621705H122.274L130.589 23.439ZM122.626 14.9173L120.07 7.85647L117.484 14.9173H122.626ZM147.626 23.439H151.74V24.9347H130.672V23.439H133.522V0.621705H141.514C142.905 0.621705 144.106 0.818808 145.117 1.21301C146.124 1.60721 146.882 2.14054 147.391 2.813C148.312 4.06518 148.772 5.47966 148.772 7.05647C148.772 8.95791 148.253 10.3724 147.215 11.2999C146.862 11.6246 146.617 11.8263 146.48 11.9052C146.343 11.9886 146.098 12.1231 145.746 12.3086C147.019 12.6333 148.034 13.3104 148.79 14.3399C149.542 15.3741 149.918 16.6564 149.918 18.1869C149.918 20.4825 149.154 22.2332 147.626 23.439ZM138.106 14.7434V20.3434H141.25C142.562 20.3434 143.548 20.1509 144.206 19.766C144.86 19.3857 145.187 18.6321 145.187 17.5051C145.187 16.3828 144.841 15.6408 144.147 15.2791C143.45 14.922 142.337 14.7434 140.809 14.7434H138.106ZM138.106 5.213V10.4652H140.28C141.554 10.4652 142.5 10.3028 143.119 9.9782C143.734 9.65357 144.041 8.95096 144.041 7.87038C144.041 6.79444 143.757 6.08256 143.189 5.73474C142.621 5.38691 141.661 5.213 140.31 5.213H138.106ZM169.459 23.439H176.012V24.9347H151.74V23.439H158.293C156.686 22.3492 155.419 20.8535 154.491 18.9521C153.558 17.0506 153.092 14.9405 153.092 12.6217C153.092 9.05067 154.13 6.06401 156.207 3.6617C158.283 1.26402 160.839 0.0651855 163.876 0.0651855C166.912 0.0651855 169.469 1.26402 171.545 3.6617C173.622 6.06401 174.66 9.05067 174.66 12.6217C174.66 14.9405 174.19 17.0506 173.249 18.9521C172.309 20.8535 171.046 22.3492 169.459 23.439ZM169.988 12.6356C169.988 10.4698 169.4 8.62168 168.225 7.09125C167.049 5.56082 165.606 4.79561 163.893 4.79561C162.177 4.79561 160.732 5.56082 159.556 7.09125C158.381 8.62168 157.793 10.4698 157.793 12.6356C157.793 14.806 158.381 16.6495 159.556 18.166C160.732 19.6872 162.177 20.4477 163.893 20.4477C165.606 20.4477 167.049 19.6872 168.225 18.166C169.4 16.6495 169.988 14.806 169.988 12.6356ZM193.73 23.439H200.283V24.9347H176.012V23.439H182.564C180.958 22.3492 179.688 20.8535 178.756 18.9521C177.827 17.0506 177.363 14.9405 177.363 12.6217C177.363 9.05067 178.401 6.06401 180.478 3.6617C182.554 1.26402 185.111 0.0651855 188.147 0.0651855C191.184 0.0651855 193.74 1.26402 195.817 3.6617C197.893 6.06401 198.931 9.05067 198.931 12.6217C198.931 14.9405 198.461 17.0506 197.521 18.9521C196.581 20.8535 195.317 22.3492 193.73 23.439ZM194.259 12.6356C194.259 10.4698 193.671 8.62168 192.496 7.09125C191.321 5.56082 189.875 4.79561 188.159 4.79561C186.447 4.79561 185.003 5.56082 183.828 7.09125C182.652 8.62168 182.065 10.4698 182.065 12.6356C182.065 14.806 182.652 16.6495 183.828 18.166C185.003 19.6872 186.447 20.4477 188.159 20.4477C189.875 20.4477 191.321 19.6872 192.496 18.166C193.671 16.6495 194.259 14.806 194.259 12.6356ZM220.823 0.621705L212.654 11.3695L219.912 23.439H222.351V24.9347H215.475L209.451 15.3347L207.394 18.0477V24.9347H200.283V23.439H202.81V0.621705H207.394V10.6043L215.151 0.621705H220.823ZM235.568 23.439H239.329V24.9347H220.582V23.439H224.578C223.5 22.7898 222.521 21.955 221.639 20.9347L224.372 16.9695C226.586 19.2651 228.633 20.413 230.513 20.413C231.356 20.413 232.018 20.1973 232.5 19.766C232.978 19.3393 233.217 18.7596 233.217 18.0269C233.217 17.2988 232.962 16.7191 232.453 16.2878C231.944 15.8611 230.935 15.4275 229.426 14.9869C227.036 14.3144 225.289 13.4402 224.184 12.3643C223.075 11.2837 222.521 9.58864 222.521 7.27908C222.521 4.97416 223.222 3.19561 224.625 1.94344C226.024 0.691271 227.771 0.0651855 229.867 0.0651855C231.238 0.0651855 232.61 0.343446 233.981 0.899966C235.352 1.45649 236.547 2.24489 237.566 3.26518L235.244 7.23038C233.462 5.63039 231.62 4.83039 229.72 4.83039C228.956 4.83039 228.355 5.04372 227.916 5.47039C227.473 5.90169 227.252 6.46981 227.252 7.17473C227.252 7.88429 227.522 8.44777 228.063 8.86516C228.6 9.28255 229.844 9.77415 231.795 10.3399C233.742 10.9104 235.254 11.7637 236.332 12.8999C237.409 14.0362 237.948 15.613 237.948 17.6304C237.948 20.1347 237.154 22.0709 235.568 23.439Z" fill="#F27851"/>
</g>
</g>
</g>
</g>
<g clip-path="url(#clip6_30_758)">
<g clip-path="url(#clip7_30_758)">
<path d="M16.4213 18.7778C12.9437 17.1029 11.1766 16.9214 9.3056 16.7292C7.46113 16.5407 5.55144 16.341 1.9376 14.6262C1.66909 15.1059 1.44735 16.0376 1.2688 17.1668C4.98429 18.313 6.86519 18.2252 8.67953 18.1363C10.515 18.0468 12.4117 17.9547 16.1222 19.1196C17.3779 19.5141 18.3557 19.9022 19.1334 20.2781C18.4425 19.8261 17.5632 19.3277 16.4213 18.7778Z" fill="#F27851"/>
<path d="M15.9794 20.2867C12.3507 19.1468 10.5787 19.2325 8.70135 19.3241C6.85283 19.4146 4.93819 19.504 1.17278 18.3472C1.05135 19.2277 0.953297 20.1812 0.875488 21.1017C4.5487 21.6176 6.36979 21.2444 8.12656 20.8803C9.93505 20.506 11.8052 20.119 15.6138 20.695C17.1034 20.9207 18.2255 21.1954 19.0913 21.4936C18.3227 21.1108 17.3175 20.7067 15.9794 20.2867Z" fill="#F27851"/>
<path d="M8.22247 22.0584C6.42747 22.4295 4.56815 22.8101 0.823432 22.2873C0.746973 23.2962 0.694351 24.2284 0.666016 24.92C4.42828 24.8886 6.20349 24.238 7.92203 23.6076C9.67656 22.9645 11.4904 22.2995 15.3292 22.2995C16.6272 22.2995 17.6562 22.3773 18.4888 22.5056C17.7233 22.2767 16.7662 22.0632 15.5442 21.8784C11.8201 21.3141 10.0723 21.6756 8.22247 22.0584Z" fill="#F27851"/>
<path d="M36.472 18.1502C38.2904 18.238 40.1745 18.3275 43.9079 17.1732C43.7235 15.945 43.5014 14.9926 43.2427 14.6268C39.6096 16.355 37.6954 16.5535 35.8455 16.7431C33.9745 16.9353 32.2069 17.1158 28.7294 18.7922C27.5874 19.3427 26.7072 19.841 26.0168 20.2941C26.7945 19.9177 27.7727 19.5285 29.0298 19.1346C32.7394 17.9686 34.637 18.0613 36.472 18.1502Z" fill="#F27851"/>
<path d="M42.9622 13.5232L39.0249 0.0654297C36.1753 1.40439 34.6555 1.55985 33.1852 1.71051C31.6821 1.86437 30.2627 2.00972 27.4701 3.35506C23.5972 5.22162 23.3872 6.38755 23.2747 7.01417C23.2203 7.31497 23.156 7.65144 22.8079 7.87079V23.1637C22.8097 23.1605 22.8133 23.1573 22.8155 23.153C22.8317 23.1253 22.8461 23.0918 22.8605 23.0551C22.8897 22.9709 22.9118 22.8698 22.9387 22.7223C23.1141 21.7475 23.4074 20.1157 28.5221 17.6524C32.077 15.9381 33.9692 15.7448 35.7992 15.5569C37.5947 15.3732 39.4509 15.1837 42.9622 13.5232Z" fill="#F27851"/>
<path d="M37.0235 20.8941C38.7821 21.2583 40.6041 21.6304 44.2831 21.1145C44.2058 20.1615 44.1109 19.2144 43.9984 18.3546C40.2213 19.5174 38.3026 19.4284 36.4492 19.3374C34.5719 19.2464 32.8002 19.1607 29.1711 20.3005C27.8331 20.7211 26.8283 21.1252 26.0579 21.509C26.9241 21.2109 28.0467 20.9362 29.5363 20.7104C33.344 20.1328 35.2159 20.5198 37.0235 20.8941Z" fill="#F27851"/>
<path d="M37.2289 23.6221C38.947 24.2519 40.7227 24.903 44.4849 24.935C44.4525 24.1311 44.4004 23.2244 44.3338 22.3007C40.5855 22.8251 38.7239 22.4439 36.9285 22.0723C35.0786 21.6895 33.3313 21.3286 29.6068 21.8924C28.3857 22.0776 27.4281 22.2916 26.6631 22.5195C27.4951 22.3928 28.5238 22.3135 29.8218 22.3135C33.6609 22.3135 35.4748 22.979 37.2289 23.6221Z" fill="#F27851"/>
<path d="M22.2127 22.7093C22.2275 22.7913 22.2401 22.8579 22.2536 22.9191V7.87111C21.9055 7.65176 21.8412 7.3153 21.7872 7.0145C21.6743 6.38787 21.4647 5.22194 17.5914 3.35538C14.7988 2.01004 13.3793 1.86469 11.8767 1.71083C10.406 1.56017 8.88712 1.40418 6.03833 0.0662842L2.18701 13.508C5.69966 15.1696 7.55628 15.3602 9.35308 15.5439C11.1827 15.7318 13.0744 15.9256 16.6298 17.6383C21.7445 20.1022 22.0377 21.7345 22.2127 22.7093Z" fill="#F27851"/>
</g>
</g>
</g>
</g>
<defs>
<clipPath id="clip0_30_758">
<rect width="238.668" height="24.9938" fill="white" transform="translate(0.666016 0.00305176)"/>
</clipPath>
<clipPath id="clip1_30_758">
<rect width="238.668" height="24.9938" fill="white" transform="translate(0.666016 0.00305176)"/>
</clipPath>
<clipPath id="clip2_30_758">
<rect width="183.035" height="24.8695" fill="white" transform="translate(56.2996 0.0651855)"/>
</clipPath>
<clipPath id="clip3_30_758">
<rect width="183.035" height="24.8695" fill="white" transform="translate(56.2996 0.0651855)"/>
</clipPath>
<clipPath id="clip4_30_758">
<rect width="183.035" height="24.8695" fill="white" transform="translate(56.2996 0.0651855)"/>
</clipPath>
<clipPath id="clip5_30_758">
<rect width="183.035" height="24.8695" fill="white" transform="translate(56.2996 0.0651855)"/>
</clipPath>
<clipPath id="clip6_30_758">
<rect width="43.819" height="24.8695" fill="white" transform="translate(0.666016 0.0654297)"/>
</clipPath>
<clipPath id="clip7_30_758">
<rect width="43.819" height="24.8695" fill="white" transform="translate(0.666016 0.0654297)"/>
</clipPath>
</defs>
</svg>
