<svg width="17" height="17" viewBox="0 0 17 17" fill="none" xmlns="http://www.w3.org/2000/svg">
<path d="M3.139 16.7157H9.80496C9.86097 16.7151 9.91649 16.7044 9.96869 16.6843C10.0209 16.6637 10.0689 16.6338 10.1105 16.5961L15.753 11.262C15.7972 11.2213 15.8327 11.1719 15.8569 11.1171C15.8792 11.0652 15.892 11.0097 15.8948 10.9533V6.14824C15.8948 5.88727 15.6832 5.67581 15.4224 5.67581C15.1616 5.67581 14.9501 5.88725 14.9501 6.14824V10.4461H12.0469C11.3269 10.4478 10.6371 10.7347 10.1283 11.2442C9.6195 11.7535 9.33341 12.4436 9.3326 13.1635V15.7707H3.13899C2.66958 15.7707 2.21945 15.5844 1.88767 15.2524C1.55572 14.9207 1.3692 14.4705 1.3692 14.0011V3.95347C1.3692 3.4839 1.55554 3.03343 1.88733 2.70113C2.21911 2.36868 2.66924 2.18151 3.13899 2.1807H10.9922C11.253 2.1807 11.4644 1.96927 11.4644 1.70845C11.4644 1.44748 11.253 1.23602 10.9922 1.23602H3.13899C2.41907 1.23769 1.72907 1.52475 1.22043 2.03407C0.711625 2.54338 0.425369 3.23355 0.424561 3.95343V14.0011C0.425392 14.7207 0.711629 15.4107 1.2206 15.9195C1.72941 16.4283 2.41924 16.7145 3.13899 16.7153L3.139 16.7157ZM12.0471 11.3911H14.2512L10.2775 15.1477V13.1638C10.2775 12.6943 10.4638 12.2438 10.7956 11.9115C11.1274 11.579 11.5775 11.3919 12.0471 11.3911Z" fill="black"/>
<path d="M14.7709 0.146804C14.6458 0.147635 14.5261 0.197336 14.4371 0.285268L7.26735 7.45505C7.21632 7.50775 7.17759 7.57125 7.15399 7.64089L6.30692 10.2418C6.25373 10.4105 6.29861 10.595 6.42345 10.7203C6.54895 10.8453 6.73329 10.8902 6.90217 10.8369L9.50307 9.98665V9.98682C9.57255 9.96321 9.63604 9.92449 9.68874 9.87345L16.8555 2.70366C17.0381 2.51849 17.0381 2.22128 16.8555 2.03609L15.1049 0.285238C15.0163 0.196642 14.8963 0.14694 14.7711 0.146774L14.7709 0.146804ZM9.10283 9.12383L7.49696 9.64974L8.02288 8.04387L14.7705 1.28642L15.8536 2.36953L9.10283 9.12383Z" fill="black"/>
</svg>
