<svg width="21" height="18" viewBox="0 0 21 18" fill="none" xmlns="http://www.w3.org/2000/svg">
<path d="M4.82275 17.9568C4.76606 17.9668 4.70791 17.9668 4.651 17.9568C4.47528 17.8845 4.36043 17.7135 4.3596 17.5234V14.2215H2.46214C2.00837 14.2215 1.57337 14.0412 1.25235 13.7204C0.931558 13.3997 0.751465 12.9644 0.751465 12.5109V1.94009C0.751465 1.48631 0.931558 1.05131 1.25235 0.730506C1.57334 0.409509 2.00836 0.229416 2.46214 0.229416H14.6167C14.8518 0.259223 15.0281 0.459118 15.0281 0.696323C15.0281 0.933319 14.8518 1.13342 14.6167 1.16323H2.46214C2.04964 1.16323 1.71509 1.49757 1.71509 1.91028V12.5184C1.71509 12.7166 1.79388 12.9067 1.93396 13.0468C2.07403 13.1869 2.26392 13.2655 2.46214 13.2655H4.82272C5.08264 13.2655 5.29337 13.4762 5.29337 13.7361V16.2762L8.03521 13.4748C8.1213 13.3799 8.24323 13.3257 8.37122 13.3253H18.6506C18.8489 13.3253 19.0388 13.2467 19.1788 13.1064C19.3191 12.9664 19.3977 12.7765 19.3977 12.5782V5.89214C19.3808 5.75812 19.4223 5.62325 19.5115 5.52195C19.6009 5.42044 19.7295 5.36249 19.8646 5.36249C19.9999 5.36249 20.1285 5.42044 20.2177 5.52195C20.3071 5.62325 20.3486 5.75812 20.3315 5.89214V12.5185C20.3296 12.9658 20.1527 13.3946 19.8385 13.7131C19.5242 14.0314 19.0979 14.2142 18.6506 14.2219H8.57291L5.16635 17.7854C5.07985 17.8867 4.95583 17.9486 4.82264 17.9571L4.82275 17.9568Z" fill="black"/>
<path d="M12.0766 3.98695H3.26888C3.03355 3.95714 2.85742 3.75704 2.85742 3.52004C2.85742 3.28304 3.03356 3.08294 3.26888 3.05313H12.0766C12.2106 3.03625 12.3455 3.07773 12.447 3.16694C12.5483 3.25636 12.6065 3.38497 12.6065 3.52004C12.6065 3.65532 12.5483 3.78393 12.447 3.87314C12.3455 3.96256 12.2106 4.00404 12.0766 3.98695Z" fill="black"/>
<path d="M9.30505 6.81826H3.26888C3.03355 6.78846 2.85742 6.58835 2.85742 6.35136C2.85742 6.11415 3.03356 5.91426 3.26888 5.88445H9.30505H9.30484C9.43907 5.86736 9.57394 5.90884 9.67524 5.99826C9.77675 6.08747 9.8347 6.21608 9.8347 6.35136C9.8347 6.48642 9.77675 6.61503 9.67524 6.70446C9.57394 6.79367 9.43907 6.83515 9.30484 6.81826H9.30505Z" fill="black"/>
<path d="M9.30505 9.64213H3.26888C3.03355 9.61232 2.85742 9.41222 2.85742 9.17522C2.85742 8.93822 3.03356 8.73812 3.26888 8.70831H9.30505H9.30484C9.43907 8.69143 9.57394 8.7327 9.67524 8.82212C9.77675 8.91154 9.8347 9.04015 9.8347 9.17522C9.8347 9.31029 9.77675 9.4389 9.67524 9.52832C9.57394 9.61774 9.43907 9.65922 9.30484 9.64213H9.30505Z" fill="black"/>
<path d="M11.24 9.64212C11.0818 9.64546 10.933 9.56771 10.8452 9.43597C10.7573 9.30424 10.7429 9.13707 10.8067 8.9922L11.9571 6.16824H11.9573C11.984 6.10509 12.0248 6.04881 12.0767 6.00399L17.9112 0.169526C18.094 -0.00890138 18.3858 -0.00890138 18.5686 0.169526L20.2943 1.91021C20.3852 1.99526 20.4367 2.11427 20.4363 2.23892C20.4342 2.36274 20.3831 2.48092 20.2943 2.56763L14.6092 8.24522C14.5678 8.29066 14.5167 8.3263 14.4598 8.34986L11.4193 9.6199C11.3614 9.63782 11.3007 9.64533 11.24 9.6422L11.24 9.64212ZM12.8238 6.6091L12.0767 8.31248L14.0117 7.49809L19.2859 2.26873L18.2249 1.17798L12.8238 6.6091Z" fill="black"/>
</svg>
