<svg width="22" height="22" viewBox="0 0 22 22" fill="none" xmlns="http://www.w3.org/2000/svg">
<path d="M17.4934 0.923828C15.5147 0.923828 13.895 2.54349 13.895 4.52221C13.895 4.84468 13.9415 5.1557 14.0222 5.45357L7.36387 8.78319C6.70331 7.94442 5.68234 7.40153 4.53808 7.40153C2.55936 7.40153 0.939697 9.02119 0.939697 10.9999C0.939697 12.9786 2.55936 14.5983 4.53808 14.5983C5.68102 14.5983 6.70263 14.0554 7.36323 13.2171L14.0224 16.5468C13.9424 16.8446 13.8952 17.1551 13.8952 17.4776C13.8952 19.4563 15.5149 21.076 17.4936 21.076C19.4723 21.076 21.092 19.4563 21.092 17.4776C21.092 15.4989 19.4723 13.8792 17.4936 13.8792C16.3493 13.8792 15.3285 14.4221 14.6678 15.2609L8.00951 11.9313C8.09013 11.6334 8.13668 11.3223 8.13668 10.9999C8.13668 10.6774 8.09013 10.3669 8.00951 10.0691L14.6687 6.73945C15.3292 7.5777 16.3502 8.12059 17.4938 8.12059C19.4725 8.12059 21.0922 6.50093 21.0922 4.52221C21.0922 2.54349 19.4725 0.923828 17.4938 0.923828H17.4934ZM17.4934 2.36349C18.6944 2.36349 19.6528 3.32191 19.6528 4.52289C19.6528 5.72387 18.6944 6.6823 17.4934 6.6823C16.2924 6.6823 15.334 5.72387 15.334 4.52289C15.334 3.32191 16.2924 2.36349 17.4934 2.36349ZM4.53807 8.84051C5.73905 8.84051 6.69747 9.79893 6.69747 10.9999C6.69747 12.2009 5.73905 13.1593 4.53807 13.1593C3.33709 13.1593 2.37866 12.2009 2.37866 10.9999C2.37866 9.79893 3.33709 8.84051 4.53807 8.84051ZM17.4934 15.3184C18.6944 15.3184 19.6528 16.2768 19.6528 17.4778C19.6528 18.6788 18.6944 19.6372 17.4934 19.6372C16.2924 19.6372 15.334 18.6788 15.334 17.4778C15.334 16.2768 16.2924 15.3184 17.4934 15.3184Z" fill="black"/>
</svg>
