<svg width="14" height="14" viewBox="0 0 14 14" fill="none" xmlns="http://www.w3.org/2000/svg">
<mask id="path-1-inside-1_29_501" fill="white">
<path d="M7.00002 0L9.37945 4.05683L14 5.05044L10.85 8.55131L11.3263 13.2222L7.00002 11.3291L2.67379 13.2222L3.15002 8.55131L2.41399e-05 5.05044L4.62059 4.05683L7.00002 0Z"/>
</mask>
<path d="M7.00002 0L7.8626 -0.505924L7.00002 -1.97658L6.13745 -0.505924L7.00002 0ZM9.37945 4.05683L8.51688 4.56275L8.73934 4.94204L9.16922 5.03448L9.37945 4.05683ZM14 5.05044L14.7434 5.71931L15.8983 4.43579L14.2103 4.07279L14 5.05044ZM10.85 8.55131L10.1066 7.88244L9.81023 8.21187L9.85518 8.65274L10.85 8.55131ZM11.3263 13.2222L10.9254 14.1383L12.4949 14.8252L12.3211 13.1208L11.3263 13.2222ZM7.00002 11.3291L7.40092 10.4129L7.00002 10.2375L6.59913 10.4129L7.00002 11.3291ZM2.67379 13.2222L1.67894 13.1208L1.50517 14.8252L3.07468 14.1383L2.67379 13.2222ZM3.15002 8.55131L4.14487 8.65274L4.18982 8.21187L3.8934 7.88244L3.15002 8.55131ZM2.41399e-05 5.05044L-0.210211 4.07279L-1.89824 4.43579L-0.743353 5.71931L2.41399e-05 5.05044ZM4.62059 4.05683L4.83083 5.03448L5.26071 4.94204L5.48317 4.56275L4.62059 4.05683ZM6.13745 0.505924L8.51688 4.56275L10.242 3.55091L7.8626 -0.505924L6.13745 0.505924ZM9.16922 5.03448L13.7898 6.02809L14.2103 4.07279L9.58969 3.07918L9.16922 5.03448ZM13.2566 4.38157L10.1066 7.88244L11.5934 9.22018L14.7434 5.71931L13.2566 4.38157ZM9.85518 8.65274L10.3314 13.3237L12.3211 13.1208L11.8449 8.44988L9.85518 8.65274ZM11.7272 12.3061L7.40092 10.4129L6.59913 12.2452L10.9254 14.1383L11.7272 12.3061ZM6.59913 10.4129L2.27289 12.3061L3.07468 14.1383L7.40092 12.2452L6.59913 10.4129ZM3.66863 13.3237L4.14487 8.65274L2.15518 8.44988L1.67894 13.1208L3.66863 13.3237ZM3.8934 7.88244L0.743401 4.38157L-0.743353 5.71931L2.40665 9.22018L3.8934 7.88244ZM0.210259 6.02809L4.83083 5.03448L4.41036 3.07918L-0.210211 4.07279L0.210259 6.02809ZM5.48317 4.56275L7.8626 0.505924L6.13745 -0.505924L3.75801 3.55091L5.48317 4.56275Z" fill="#FFCB45" mask="url(#path-1-inside-1_29_501)"/>
</svg>
