<svg width="14" height="18" viewBox="0 0 14 18" fill="none" xmlns="http://www.w3.org/2000/svg">
<path fill-rule="evenodd" clip-rule="evenodd" d="M6.69008 17.433L6.69288 17.4342C6.89 17.52 7 17.5 7 17.5C7 17.5 7.11 17.52 7.30791 17.4339L7.30992 17.433L7.31565 17.4304L7.33381 17.422C7.34884 17.415 7.36967 17.4052 7.39591 17.3926C7.44837 17.3673 7.52255 17.3306 7.61533 17.2822C7.80078 17.1855 8.06121 17.0419 8.37166 16.8495C8.99123 16.4655 9.81736 15.8826 10.6455 15.0844C12.3022 13.4876 14 10.9925 14 7.5C14 3.63401 10.866 0.5 7 0.5C3.13401 0.5 0 3.63401 0 7.5C0 10.9925 1.69783 13.4876 3.35452 15.0844C4.18264 15.8826 5.00877 16.4655 5.62834 16.8495C5.93879 17.0419 6.19922 17.1855 6.38467 17.2822C6.47745 17.3306 6.55163 17.3673 6.60409 17.3926C6.63033 17.4052 6.65116 17.415 6.66619 17.422L6.68435 17.4304L6.69008 17.433ZM7 9.75C8.24264 9.75 9.25 8.74264 9.25 7.5C9.25 6.25736 8.24264 5.25 7 5.25C5.75736 5.25 4.75 6.25736 4.75 7.5C4.75 8.74264 5.75736 9.75 7 9.75Z" fill="#F76B56"/>
</svg>
